<svg viewBox="0 0 170 40" xmlns="http://www.w3.org/2000/svg" fill="none" data-astro-cid-itwpwsnu=""><path d="M45.3378 0.171387L27.2258 26.9695V39.9419H18.112V26.9695L0 0.171387H11.0625L22.6402 18.4351L34.2186 0.171387H45.3378Z" fill="#FBFBFB" data-astro-cid-itwpwsnu=""></path><path d="M81.5051 19.8002C82.4867 20.8812 83.2549 22.1358 83.7695 23.4985C84.2851 24.8629 84.5471 26.3087 84.543 27.7659C84.5547 29.3782 84.2328 30.9758 83.5973 32.4596C82.3615 35.3564 80.0386 37.6622 77.1204 38.889C75.6256 39.5197 74.0163 39.8392 72.392 39.8277H50.8984V0.114161H72.392C74.0443 0.100997 75.6821 0.420335 77.2065 1.05289C78.6835 1.67021 80.0119 2.59132 81.104 3.7555C82.108 4.87326 82.8952 6.16561 83.4259 7.56741C83.9849 9.04025 84.2665 10.6025 84.2567 12.1764C84.2567 15.0975 83.3395 17.6388 81.5051 19.8002ZM60.0115 14.9071C60.0115 15.2486 60.2026 15.4193 60.5848 15.4192H72.0484C72.4482 15.418 72.8433 15.3339 73.2084 15.1722C73.5735 15.0106 73.9006 14.7749 74.1686 14.4804C74.4651 14.1858 74.6992 13.835 74.8568 13.449C75.0144 13.063 75.0925 12.6495 75.0863 12.233C75.1146 11.8274 75.0521 11.4208 74.9034 11.042C74.7546 10.6633 74.5233 10.322 74.226 10.0425C73.9407 9.75867 73.601 9.53445 73.227 9.38301C72.853 9.23158 72.4523 9.15599 72.0484 9.16071H60.5848C60.2026 9.16071 60.0115 9.33141 60.0115 9.67281L60.0115 14.9071ZM60.0115 30.2691C60.0115 30.6106 60.2026 30.7813 60.5848 30.7812H72.3346C72.7387 30.7862 73.1396 30.7107 73.5138 30.5593C73.8879 30.4078 74.2277 30.1834 74.513 29.8994C74.8113 29.618 75.047 29.2777 75.2049 28.9004C75.3628 28.5232 75.4395 28.1173 75.43 27.7089C75.4054 26.8695 75.0685 26.0689 74.4843 25.4614C74.2229 25.1662 73.9011 24.9298 73.5403 24.7679C73.1794 24.606 72.788 24.5224 72.3921 24.5227H60.5848C60.2026 24.5227 60.0115 24.6934 60.0115 25.0348V30.2691Z" fill="#FBFBFB" data-astro-cid-itwpwsnu=""></path><path d="M90.8438 17.9712L90.8443 39.9417H100.015V35.2761C100.015 34.9346 100.168 34.7639 100.473 34.7641H107.948C106.607 25.3411 100.096 19.0892 90.8438 17.9712Z" fill="#5F5FFF" data-astro-cid-itwpwsnu=""></path><path d="M129.362 15.9315C129.219 14.1083 128.775 12.3208 128.049 10.6402C127.165 8.56384 125.88 6.67934 124.266 5.09287C122.655 3.51438 120.759 2.25021 118.678 1.36604C116.533 0.4508 114.22 -0.0141755 111.886 0.000329184H110.328C111.885 9.48705 119.281 15.092 129.362 15.9315Z" fill="#5F5FFF" data-astro-cid-itwpwsnu=""></path><path d="M107.931 0.000488281H90.8446L90.8438 15.8909C100.056 14.9226 106.551 9.33493 107.931 0.000488281Z" fill="#FBFBFB" data-astro-cid-itwpwsnu=""></path><path d="M110.031 37.6839L110.62 39.9421H120.477L118.07 33.6266C120.948 32.5726 123.483 30.7635 125.407 28.392C126.693 26.8598 127.701 25.1175 128.387 23.2428C129.009 21.531 129.351 19.7313 129.399 17.9121C118.257 18.9399 110.383 26.461 110.031 37.6839Z" fill="#FBFBFB" data-astro-cid-itwpwsnu=""></path><path d="M169.995 0.0571289V19.9711C169.995 22.3607 169.899 24.6744 169.708 26.9122C169.527 29.1149 168.862 31.2513 167.759 33.1711C166.421 35.5232 164.434 37.2679 161.798 38.4053C160.485 38.9636 159.109 39.3647 157.7 39.6001C156.005 39.8807 154.289 40.0141 152.571 39.9986C150.862 40.0119 149.155 39.8786 147.47 39.6001C146.051 39.3675 144.665 38.9663 143.343 38.4053C140.834 37.3516 138.741 35.5137 137.382 33.1711C136.844 32.2181 136.421 31.206 136.12 30.1554C135.814 29.0935 135.594 28.009 135.461 26.9122C135.325 25.7886 135.249 24.6586 135.232 23.527C135.212 22.3704 135.203 21.1851 135.203 19.9711V0.0571289H144.374V19.9711C144.374 21.7916 144.413 23.4795 144.489 25.0348C144.565 26.5906 144.851 27.8044 145.349 28.6761C145.482 28.8635 145.625 29.044 145.778 29.2167C146.087 29.5331 146.458 29.7846 146.867 29.9564C147.546 30.2547 148.258 30.4742 148.988 30.6106C149.885 30.8006 151.08 30.8955 152.571 30.8951C154.061 30.8951 155.264 30.8003 156.182 30.6106C156.921 30.4766 157.643 30.257 158.331 29.9564C158.846 29.7101 159.2 29.4635 159.392 29.2167C159.582 28.9704 159.716 28.7902 159.792 28.6761C160.289 27.8041 160.585 26.5808 160.68 25.0063C160.776 23.4329 160.823 21.7545 160.824 19.9711V0.0571289H169.995Z" fill="#FBFBFB" data-astro-cid-itwpwsnu=""></path></svg>