<svg viewBox="0 0 170 40" xmlns="http://www.w3.org/2000/svg" fill="none" data-astro-cid-itwpwsnu=""><path d="M45.3378 0.171265L27.2258 26.9694V39.9418H18.112V26.9694L0 0.171265H11.0625L22.6402 18.4349L34.2186 0.171265H45.3378Z" fill="#161616" ></path><path d="M81.5051 19.8003C82.4867 20.8813 83.2549 22.1359 83.7695 23.4986C84.2851 24.863 84.5471 26.3089 84.543 27.766C84.5547 29.3784 84.2328 30.9759 83.5973 32.4597C82.3615 35.3565 80.0386 37.6623 77.1204 38.8891C75.6256 39.5198 74.0163 39.8393 72.392 39.8279H50.8984V0.114283H72.392C74.0443 0.101119 75.6821 0.420457 77.2065 1.05302C78.6835 1.67033 80.0119 2.59145 81.104 3.75562C82.108 4.87338 82.8952 6.16573 83.4259 7.56754C83.9849 9.04037 84.2665 10.6026 84.2567 12.1765C84.2567 15.0976 83.3395 17.6389 81.5051 19.8003ZM60.0115 14.9072C60.0115 15.2487 60.2026 15.4194 60.5848 15.4193H72.0484C72.4482 15.4181 72.8433 15.334 73.2084 15.1724C73.5735 15.0107 73.9006 14.7751 74.1686 14.4806C74.4651 14.1859 74.6992 13.8351 74.8568 13.4491C75.0144 13.0631 75.0925 12.6496 75.0863 12.2331C75.1146 11.8276 75.0521 11.4209 74.9034 11.0422C74.7546 10.6634 74.5233 10.3221 74.226 10.0426C73.9407 9.75879 73.601 9.53457 73.227 9.38313C72.853 9.2317 72.4523 9.15611 72.0484 9.16083H60.5848C60.2026 9.16083 60.0115 9.33153 60.0115 9.67293L60.0115 14.9072ZM60.0115 30.2692C60.0115 30.6107 60.2026 30.7814 60.5848 30.7813H72.3346C72.7387 30.7863 73.1396 30.7108 73.5138 30.5594C73.8879 30.4079 74.2277 30.1836 74.513 29.8996C74.8113 29.6181 75.047 29.2778 75.2049 28.9006C75.3628 28.5233 75.4395 28.1175 75.43 27.709C75.4054 26.8696 75.0685 26.069 74.4843 25.4616C74.2229 25.1663 73.9011 24.9299 73.5403 24.768C73.1794 24.6061 72.788 24.5225 72.3921 24.5228H60.5848C60.2026 24.5228 60.0115 24.6935 60.0115 25.0349V30.2692Z" fill="#161616" ></path><path d="M90.8438 17.9713L90.8443 39.9418H100.015V35.2763C100.015 34.9347 100.168 34.764 100.473 34.7642H107.948C106.607 25.3412 100.096 19.0894 90.8438 17.9713Z" fill="#5F5FFF" ></path><path d="M129.362 15.9315C129.219 14.1083 128.775 12.3208 128.049 10.6402C127.165 8.56384 125.88 6.67934 124.266 5.09287C122.655 3.51438 120.759 2.25021 118.678 1.36604C116.533 0.4508 114.22 -0.0141755 111.886 0.000329184H110.328C111.885 9.48705 119.281 15.092 129.362 15.9315Z" fill="#5F5FFF" ></path><path d="M107.931 0.000328064H90.8446L90.8438 15.8907C100.056 14.9225 106.551 9.33477 107.931 0.000328064Z" fill="#161616" ></path><path d="M110.031 37.6837L110.62 39.9418H120.477L118.07 33.6264C120.948 32.5724 123.483 30.7633 125.407 28.3917C126.693 26.8596 127.701 25.1173 128.387 23.2425C129.009 21.5308 129.351 19.731 129.399 17.9119C118.257 18.9397 110.383 26.4608 110.031 37.6837Z" fill="#161616" ></path><path d="M169.995 0.0572891V19.9713C169.995 22.3608 169.899 24.6745 169.708 26.9124C169.527 29.115 168.862 31.2515 167.759 33.1712C166.421 35.5233 164.434 37.2681 161.798 38.4055C160.485 38.9637 159.109 39.3648 157.7 39.6003C156.005 39.8809 154.289 40.0142 152.571 39.9988C150.862 40.0121 149.155 39.8787 147.47 39.6003C146.051 39.3676 144.665 38.9665 143.343 38.4055C140.834 37.3518 138.741 35.5139 137.382 33.1712C136.844 32.2183 136.421 31.2062 136.12 30.1556C135.814 29.0937 135.594 28.0091 135.461 26.9124C135.325 25.7887 135.249 24.6587 135.232 23.5271C135.212 22.3706 135.203 21.1853 135.203 19.9713V0.0572891H144.374V19.9713C144.374 21.7917 144.413 23.4796 144.489 25.0349C144.565 26.5907 144.851 27.8045 145.349 28.6763C145.482 28.8637 145.625 29.0441 145.778 29.2169C146.087 29.5332 146.458 29.7848 146.867 29.9565C147.546 30.2548 148.258 30.4744 148.988 30.6107C149.885 30.8008 151.08 30.8956 152.571 30.8953C154.061 30.8953 155.264 30.8004 156.182 30.6107C156.921 30.4767 157.643 30.2572 158.331 29.9565C158.846 29.7102 159.2 29.4637 159.392 29.2169C159.582 28.9706 159.716 28.7904 159.792 28.6763C160.289 27.8043 160.585 26.581 160.68 25.0064C160.776 23.433 160.823 21.7546 160.824 19.9713V0.0572891H169.995Z" fill="#161616"></path></svg>